<?xml version="1.0" encoding="utf-8"?>
<!-- Generator: Adobe Illustrator 27.5.0, SVG Export Plug-In . SVG Version: 6.00 Build 0)  -->
<svg version="1.1" xmlns="http://www.w3.org/2000/svg" xmlns:xlink="http://www.w3.org/1999/xlink" x="0px" y="0px"
	 viewBox="0 0 281.728 400" style="enable-background:new 0 0 281.728 400;" xml:space="preserve">
<g id="Layer_1">
</g>
<g id="Layer_2">
	<g>
		<g>
			<g>
				<path style="fill:#593A34;" d="M187.145,50.152c0,0,25.128-20.017,47.701-3.833c14.699,10.539,19.308,32.023,20.813,48.897
					c1.587,17.799-1.983,35.664-7.556,52.505c-8.815,26.636-12.128,50.842,3.743,75.398c20.763,32.126,31.447,76.712,14.304,112.831
					c-5.276,11.115-14.486,19.731-27.045,21.274C190.552,363.187,75.134,393,75.134,311.653s-25.554-92.42-8.944-155.453
					S132.63,81.669,187.145,50.152z"/>
				<path style="opacity:0.5;fill:#593A34;" d="M214.708,341.042c-9.641-15.348-16.414-32.501-19.587-50.358
					c-3.088-17.378-2.839-35.53,1.21-52.736c3.659-15.548,10.467-30.089,16.771-44.687c6.38-14.774,12.468-30.028,13.955-46.197
					c1.622-17.643-2.826-35.087-11.886-50.234c-2.341-3.914-4.934-7.675-7.704-11.297c-2.643-3.456-5.389-6.979-8.476-10.053
					c-4.978-4.959-11.607-7.864-18.44-9.18c-8.227-1.584-17.021-1.174-25.336,0.937c-41.195,21.095-75.739,38.541-89.026,88.963
					c-16.61,63.033,8.944,74.106,8.944,155.453c0,75.783,100.17,55.092,153.128,47.086
					C223.237,353.274,218.651,347.32,214.708,341.042z"/>
			</g>
			<g>
				<g>
					<path style="fill:#FED09E;" d="M245.289,327.52c-5.191-30.268-15.795-43.202-48.569-57.839
						c-36.691-16.386-27.429-71.957-27.429-71.957h-37.106c0,0,9.262,55.571-27.429,71.957
						c-32.774,14.637-43.378,27.571-48.569,57.839H245.289z"/>
				</g>
			</g>
			<path style="fill:#FED09E;" d="M170.836,235.806c-4.714-19.065-1.545-38.082-1.545-38.082h-37.106c0,0,3.145,18.879-1.495,37.874
				c6.333,3.13,13.33,5.341,20.285,5.352C157.774,240.94,164.615,238.825,170.836,235.806z"/>
			<g>
				<path style="fill:#8FB9D1;" d="M257.293,390c0-141.353-59.158-121.597-59.158-121.597c-0.876,1.363-1.882,2.64-2.99,3.821
					c-9.811,10.458-26.378,14.448-40.178,15.22c-17.831,0.998-40.743-3.35-51.624-19.041h-0.004c0,0-59.158-19.756-59.158,121.597
					H257.293z"/>
				<path style="fill:#8FB9D1;" d="M226.401,317.703c5.722,38.512,2.29,63.376,0.548,72.297h8.034
					C237.102,338.582,226.401,317.703,226.401,317.703z"/>
				<path style="fill:#8FB9D1;" d="M85.304,317.703c-5.722,38.512-2.29,63.376-0.548,72.297h-8.034
					C74.603,338.582,85.304,317.703,85.304,317.703z"/>
			</g>
		</g>
		<g>
			<g>
				<path style="fill:#FED09E;" d="M212.296,139.024c-0.375,13.163-2.033,26.507-5.135,39.292
					c-2.059,8.486-4.867,17.653-10.151,24.829c-5.287,7.181-12.874,12.338-20.378,16.874c-7.62,4.607-16.703,8.304-25.71,8.304
					h0.104c-9.007,0-18.09-3.697-25.71-8.304c-7.504-4.536-15.091-9.694-20.378-16.874c-5.283-7.176-8.091-16.343-10.15-24.829
					c-3.103-12.785-4.76-26.129-5.135-39.292c0,0-15.092-74.343,59.985-74.343C224.714,64.682,212.296,139.024,212.296,139.024z"/>
				<g>
					<g style="opacity:0.8;">
						<path style="fill:#FED09E;" d="M145.099,174.323c0.024-0.271-0.242-0.49-0.509-0.543c-0.272-0.055-0.574,0.016-0.772,0.21
							c-0.199,0.194-0.274,0.514-0.155,0.765c0.14,0.297,0.529,0.432,0.838,0.323c0.309-0.109,0.521-0.427,0.544-0.754"/>
						<path style="fill:#FED09E;" d="M146.67,174.609c-0.117-0.145-0.321-0.207-0.504-0.169c-0.182,0.038-0.339,0.168-0.427,0.333
							c-0.057,0.106-0.087,0.231-0.058,0.348c0.026,0.102,0.095,0.191,0.183,0.25c0.242,0.164,0.609,0.08,0.774-0.162
							c0.165-0.242,0.122-0.596-0.08-0.808"/>
						<path style="fill:#FED09E;" d="M149.917,173.466c-0.136-0.037-0.28-0.069-0.417-0.034c-0.137,0.034-0.262,0.155-0.254,0.296
							c0.005,0.078,0.049,0.15,0.106,0.203c0.147,0.137,0.408,0.15,0.542,0c0.134-0.15,0.055-0.442-0.143-0.474"/>
						<path style="fill:#FED09E;" d="M153.301,174.331c0.249-0.073,0.524-0.075,0.762,0.03c0.237,0.104,0.43,0.324,0.469,0.58
							c0.039,0.257-0.095,0.539-0.333,0.642c-0.099,0.043-0.209,0.055-0.317,0.05c-0.314-0.016-0.626-0.193-0.764-0.476
							c-0.138-0.283-0.069-0.663,0.184-0.85"/>
						<path style="fill:#FED09E;" d="M158.558,168.818c-0.204-0.051-0.418-0.102-0.621-0.046c-0.202,0.055-0.381,0.257-0.334,0.462
							c0.047,0.2,0.282,0.302,0.487,0.285c0.172-0.014,0.346-0.1,0.426-0.253c0.08-0.152,0.036-0.371-0.117-0.45"/>
						<path style="fill:#FED09E;" d="M154.156,166.312c-0.218-0.145-0.516-0.29-0.722-0.128c-0.05,0.039-0.088,0.094-0.111,0.153
							c-0.098,0.254,0.127,0.572,0.399,0.563c0.272-0.009,0.477-0.34,0.363-0.587"/>
						<path style="fill:#FED09E;" d="M146.54,161.938c-0.179-0.159-0.44-0.218-0.67-0.153c-0.23,0.066-0.42,0.255-0.488,0.484
							c-0.025,0.087-0.034,0.181-0.008,0.267c0.022,0.074,0.069,0.138,0.123,0.193c0.255,0.259,0.719,0.287,0.983,0.038
							c0.264-0.249,0.246-0.744-0.053-0.95"/>
						<path style="fill:#FED09E;" d="M148.624,164.458c-0.223-0.19-0.57-0.248-0.814-0.087c-0.244,0.162-0.312,0.558-0.098,0.758
							c0.058,0.054,0.129,0.091,0.204,0.114c0.238,0.075,0.521,0.003,0.68-0.19c0.158-0.193,0.167-0.5,0.005-0.69"/>
						<path style="fill:#FED09E;" d="M150.56,169.018c0.198-0.046,0.419-0.043,0.591,0.066c0.172,0.109,0.269,0.348,0.174,0.528
							c-0.073,0.139-0.236,0.209-0.392,0.229c-0.211,0.027-0.447-0.03-0.576-0.198c-0.13-0.169-0.096-0.458,0.097-0.548"/>
						<path style="fill:#FED09E;" d="M150.701,170.378c0.143,0.139,0.075,0.424-0.115,0.484c-0.19,0.06-0.41-0.134-0.373-0.33
							c0.037-0.196,0.312-0.298,0.467-0.173"/>
						<path style="fill:#FED09E;" d="M143.646,169.595c-0.258-0.062-0.56-0.115-0.766,0.052c-0.074,0.061-0.127,0.145-0.157,0.236
							c-0.094,0.288,0.069,0.635,0.351,0.745s0.637-0.032,0.764-0.307c0.127-0.275,0.005-0.638-0.262-0.781"/>
						<path style="fill:#FED09E;" d="M140.87,170.033c-0.186-0.056-0.402-0.043-0.556,0.075c-0.155,0.118-0.222,0.353-0.119,0.518
							c0.048,0.077,0.126,0.131,0.21,0.167c0.206,0.089,0.478,0.056,0.611-0.125c0.133-0.181,0.039-0.498-0.183-0.529"/>
						<path style="fill:#FED09E;" d="M140.921,167.618c0.203-0.157,0.553,0.003,0.575,0.259c0.023,0.256-0.277,0.475-0.518,0.386
							c-0.241-0.089-0.33-0.437-0.171-0.638"/>
						<path style="fill:#FED09E;" d="M134.406,171.858c-0.282-0.121-0.672-0.104-0.823,0.163c-0.134,0.237,0.023,0.573,0.283,0.656
							c0.26,0.083,0.56-0.066,0.688-0.307c0.079-0.149,0.098-0.334,0.028-0.487c-0.071-0.153-0.241-0.261-0.407-0.237"/>
						<path style="fill:#FED09E;" d="M154.727,170.297c-0.078-0.13-0.264-0.183-0.397-0.111c-0.134,0.072-0.191,0.26-0.117,0.392
							c0.074,0.133,0.267,0.182,0.394,0.099c0.127-0.083,0.158-0.283,0.059-0.398"/>
						<path style="fill:#FED09E;" d="M152.306,171.258c-0.242-0.078-0.532,0.045-0.645,0.273c-0.022,0.045-0.038,0.094-0.04,0.145
							c-0.002,0.063,0.02,0.125,0.053,0.178c0.129,0.204,0.453,0.245,0.63,0.08c0.176-0.165,0.156-0.491-0.039-0.634"/>
						<path style="fill:#FED09E;" d="M147.072,168.48c-0.179,0.127-0.436,0.164-0.618,0.041c-0.182-0.123-0.231-0.423-0.064-0.566
							c0.064-0.055,0.149-0.081,0.234-0.092c0.159-0.021,0.335,0.015,0.442,0.134c0.107,0.12,0.108,0.333-0.024,0.424"/>
						<path style="fill:#FED09E;" d="M165.587,171.712c-0.155-0.188-0.517-0.108-0.577,0.128c-0.059,0.236,0.226,0.478,0.448,0.379
							c0.222-0.099,0.23-0.477,0.011-0.583"/>
						<path style="fill:#FED09E;" d="M171.449,177.056c0.3-0.237,0.823,0.031,0.823,0.413c0.001,0.382-0.49,0.657-0.825,0.473
							c-0.335-0.184-0.383-0.719-0.099-0.975"/>
						<path style="fill:#FED09E;" d="M175.297,177.554c0.275,0.163,0.269,0.636-0.01,0.792c-0.278,0.156-0.685-0.085-0.681-0.404
							C174.61,177.622,175.022,177.391,175.297,177.554"/>
						<path style="fill:#FED09E;" d="M177.911,176.823c-0.218-0.114-0.515,0.138-0.443,0.373c0.072,0.235,0.45,0.284,0.583,0.078
							c0.133-0.206-0.058-0.528-0.304-0.514"/>
						<path style="fill:#FED09E;" d="M185.605,172.387c0.174-0.031,0.368-0.058,0.517,0.038c0.254,0.164,0.172,0.604-0.094,0.747
							c-0.255,0.137-0.624,0.023-0.725-0.248c-0.101-0.271,0.144-0.617,0.431-0.581"/>
						<path style="fill:#FED09E;" d="M183.951,179.692c-0.276-0.286-0.783-0.318-1.078-0.05c-0.295,0.268-0.3,0.797,0.003,1.055
							c0.303,0.258,0.845,0.149,1.006-0.215c0.138-0.311,0.001-0.67-0.142-0.979"/>
						<path style="fill:#FED09E;" d="M191.576,176.196c-0.366-0.347-1.026-0.302-1.344,0.089c-0.318,0.391-0.228,1.044,0.183,1.337
							c0.411,0.292,1.055,0.165,1.327-0.259c0.271-0.425,0.117-1.061-0.318-1.316"/>
						<path style="fill:#FED09E;" d="M191.864,179.822c-0.167-0.367-0.796-0.367-0.963,0.001c-0.167,0.367,0.244,0.842,0.632,0.729
							c0.387-0.113,0.482-0.732,0.146-0.955"/>
						<path style="fill:#FED09E;" d="M188.874,183.723c0.059-0.436,0.607-0.724,0.999-0.524c0.392,0.2,0.481,0.813,0.163,1.116
							c-0.061,0.058-0.132,0.104-0.208,0.141c-0.27,0.13-0.608,0.12-0.861-0.041c-0.253-0.161-0.406-0.474-0.361-0.771"/>
						<path style="fill:#FED09E;" d="M196.447,184.943c-0.293-0.134-0.66-0.184-0.923,0.003c-0.268,0.192-0.326,0.618-0.119,0.875
							c0.207,0.256,0.637,0.288,0.88,0.066c0.243-0.222,0.25-0.653,0.013-0.883"/>
						<path style="fill:#FED09E;" d="M194.263,184.881c-0.161-0.198-0.549-0.059-0.558,0.196c-0.009,0.255,0.348,0.427,0.548,0.268
							c0.2-0.158,0.13-0.533-0.11-0.619"/>
						<path style="fill:#FED09E;" d="M194.188,186.488c0.173-0.128,0.445-0.108,0.583,0.057s0.098,0.454-0.091,0.558
							c-0.188,0.105-0.468-0.033-0.482-0.248c-0.013-0.193,0.151-0.345,0.301-0.467"/>
						<path style="fill:#FED09E;" d="M196.744,180.486c-0.287-0.119-0.653-0.014-0.822,0.247c-0.168,0.261-0.106,0.649,0.143,0.833
							c0.249,0.185,0.65,0.123,0.821-0.136c0.171-0.259,0.062-0.662-0.222-0.787"/>
						<path style="fill:#FED09E;" d="M194.512,178.271c0.192-0.185,0.568-0.09,0.65,0.163c0.046,0.143,0.004,0.308-0.096,0.419
							c-0.167,0.185-0.49,0.198-0.672,0.027c-0.182-0.171-0.188-0.495-0.012-0.673"/>
						<path style="fill:#FED09E;" d="M197.369,170.968c-0.196-0.052-0.419,0.022-0.545,0.18c-0.126,0.158-0.149,0.392-0.056,0.571
							c0.215,0.172,0.575,0.113,0.724-0.119c0.149-0.232,0.055-0.583-0.191-0.709"/>
						<path style="fill:#FED09E;" d="M126.073,176.799c0.086,0.188-0.066,0.441-0.273,0.452c-0.207,0.011-0.386-0.224-0.32-0.42
							c0.066-0.197,0.35-0.277,0.508-0.144"/>
						<path style="fill:#FED09E;" d="M123.032,179.016c-0.206-0.151-0.554,0.035-0.542,0.291c0.012,0.255,0.376,0.408,0.567,0.238
							c0.157-0.191,0.098-0.517-0.115-0.641"/>
						<path style="fill:#FED09E;" d="M116.225,179.796c0.185-0.173,0.407-0.322,0.658-0.355c0.251-0.033,0.533,0.074,0.645,0.301
							c0.13,0.263-0.026,0.613-0.295,0.73c-0.269,0.117-0.603,0.019-0.801-0.199s-0.268-0.531-0.23-0.822"/>
						<path style="fill:#FED09E;" d="M115.101,171.396c0.24,0.1,0.311,0.466,0.125,0.648c-0.186,0.182-0.551,0.103-0.645-0.14
							c-0.094-0.243,0.122-0.547,0.382-0.538"/>
						<path style="fill:#FED09E;" d="M111.679,180.985c-0.207-0.071-0.435-0.113-0.643-0.046s-0.383,0.273-0.355,0.49
							c0.012,0.096,0.062,0.185,0.131,0.253c0.223,0.219,0.647,0.167,0.811-0.1c0.163-0.267,0.016-0.669-0.281-0.767"/>
						<path style="fill:#FED09E;" d="M109.778,176.781c-0.333,0.211-0.81,0.158-1.088-0.121c-0.092-0.092-0.164-0.208-0.186-0.336
							c-0.06-0.364,0.359-0.687,0.718-0.602s0.591,0.474,0.579,0.843c-0.077,0.005-0.155,0.009-0.232,0.014"/>
						<path style="fill:#FED09E;" d="M104.594,177.904c-0.174-0.015-0.359,0.031-0.483,0.154c-0.124,0.122-0.172,0.327-0.088,0.479
							c0.128,0.233,0.527,0.212,0.652-0.023c0.125-0.235-0.046-0.56-0.305-0.618"/>
						<path style="fill:#FED09E;" d="M106.901,180.503c-0.311-0.181-0.74-0.35-0.995-0.097c-0.188,0.187-0.148,0.521,0.023,0.724
							c0.224,0.266,0.684,0.329,0.921,0.074c0.237-0.255,0.057-0.776-0.291-0.769"/>
						<path style="fill:#FED09E;" d="M108.978,179.555c-0.142-0.113-0.359-0.12-0.508-0.016c-0.149,0.104-0.218,0.309-0.162,0.482
							c0.086,0.266,0.474,0.373,0.682,0.186c0.208-0.187,0.139-0.588-0.122-0.69"/>
						<path style="fill:#FED09E;" d="M109.141,183.533c-0.103,0.014-0.206-0.053-0.308-0.034c-0.11,0.02-0.18,0.13-0.207,0.238
							c-0.031,0.121-0.024,0.255,0.037,0.363c0.061,0.109,0.183,0.186,0.307,0.178c0.154-0.011,0.277-0.149,0.309-0.299
							c0.032-0.151-0.011-0.308-0.077-0.447"/>
						<path style="fill:#FED09E;" d="M105.615,185.623c-0.209-0.075-0.469,0.047-0.542,0.256c-0.074,0.21,0.053,0.468,0.265,0.537
							c0.212,0.069,0.467-0.068,0.526-0.282c0.056-0.201-0.052-0.419-0.208-0.557"/>
						<path style="fill:#FED09E;" d="M104.39,184.335c0.168,0.045,0.237,0.293,0.115,0.418s-0.372,0.062-0.42-0.106
							c-0.049-0.167,0.129-0.354,0.299-0.314"/>
						<path style="fill:#FED09E;" d="M101.179,179.111c-0.126-0.068-0.293-0.057-0.404,0.033c-0.111,0.09-0.154,0.259-0.092,0.388
							c0.062,0.129,0.229,0.2,0.362,0.147c0.196-0.077,0.233-0.36,0.126-0.542"/>
						<path style="fill:#FED09E;" d="M115.392,172.028c-0.155-0.121-0.416-0.058-0.5,0.12c-0.014,0.029-0.023,0.061-0.022,0.094
							c0.001,0.052,0.028,0.101,0.064,0.139c0.103,0.108,0.294,0.124,0.402,0.022s0.09-0.311-0.042-0.38"/>
						<path style="fill:#FED09E;" d="M101.728,171.951c-0.107-0.103-0.273-0.142-0.415-0.096c-0.142,0.046-0.254,0.173-0.281,0.319
							c-0.011,0.059-0.008,0.122,0.019,0.175c0.03,0.058,0.085,0.098,0.143,0.127c0.172,0.086,0.401,0.078,0.536-0.059
							c0.135-0.137,0.117-0.407-0.056-0.49"/>
						<path style="fill:#FED09E;" d="M99.4,168.688c-0.062-0.134-0.297-0.113-0.345,0.027c-0.048,0.14,0.104,0.298,0.249,0.268
							c0.079-0.016,0.148-0.081,0.159-0.161c0.011-0.08-0.047-0.166-0.126-0.177"/>
						<path style="fill:#FED09E;" d="M119.319,175.64c-0.085-0.045-0.202-0.009-0.247,0.075c-0.046,0.084-0.011,0.202,0.072,0.248
							c0.083,0.047,0.201,0.014,0.249-0.069c0.056-0.096,0.014-0.219-0.042-0.315"/>
						<path style="fill:#FED09E;" d="M122.84,173.952c-0.169-0.15-0.466-0.115-0.595,0.071c-0.129,0.185-0.058,0.477,0.142,0.582
							c0.2,0.105,0.48,0,0.561-0.211c0.045-0.118,0.032-0.251-0.003-0.372"/>
						<path style="fill:#FED09E;" d="M197.59,174.414c-0.253-0.084-0.551,0.166-0.513,0.43c0.038,0.264,0.395,0.419,0.614,0.267
							c0.219-0.152,0.199-0.54-0.035-0.669"/>
					</g>
					<g>
						<g>
							<g>
								<path style="fill:#FFFFFF;" d="M134.265,160.873c0-0.002,0.719-17.129-12.667-20.152
									c-13.386-3.023-20.871,5.614-26.773-1.727c0,0,0.72,8.636,8.348,10.796c-0.26-0.074-0.375,5.662-0.338,6.012
									c0.413,3.994,2.326,7.63,5.875,9.676c4.417,2.545,10.034,2.618,14.934,1.769c2.041-0.354,4.072-0.946,5.907-1.92
									C130.844,164.641,134.193,162.583,134.265,160.873z"/>
								<path style="fill:#844E3D;" d="M99.758,156.934c0,0,9.46,16.671,30.907,7.774c0,0-8.617,7.399-22.384,2.435
									C100.618,164.379,99.758,156.934,99.758,156.934z"/>
								<g>
									<path style="fill:#8A4A2E;" d="M107.71,155.901c1.27,6.407,7.493,10.572,13.9,9.302c6.407-1.27,10.572-7.493,9.302-13.9
										c-1.27-6.407-7.493-10.572-13.9-9.302C110.604,143.271,106.44,149.494,107.71,155.901z"/>
									<path style="fill:#231F20;" d="M112.659,154.92c0.728,3.674,4.297,6.062,7.971,5.334c3.674-0.728,6.062-4.297,5.334-7.971
										c-0.728-3.674-4.297-6.062-7.97-5.334C114.318,147.678,111.93,151.246,112.659,154.92z"/>
									<path style="fill:#FFFFFF;" d="M120.658,154.041c0.458,2.311,2.703,3.814,5.014,3.356c2.311-0.458,3.814-2.703,3.356-5.015
										c-0.458-2.311-2.703-3.814-5.014-3.356C121.702,149.484,120.2,151.73,120.658,154.041z"/>
								</g>
								<path style="fill:#231F20;" d="M121.598,140.722c-13.386-3.023-20.871,5.614-26.773-1.727c0,0,0.72,8.636,8.348,10.796
									c0,0,4.829-9.554,18.865-5.735c6.321,1.72,9.794,6.39,11.704,11.005C132.735,149.794,129.842,142.583,121.598,140.722z"/>
								<path style="fill:#D1D3D4;" d="M102.932,151.767c0.976-0.701,1.996-1.33,3.149-1.724c1.752-0.598,3.609-0.882,5.457-0.946
									c3.232-0.113,6.485,0.431,9.478,1.665c2.829,1.166,5.376,2.885,7.702,4.859c1.174,0.996,2.303,2.053,3.395,3.137
									c0.77,0.763,1.473,1.593,2.086,2.485c0.036-0.124,0.061-0.247,0.067-0.368c0-0.002,0.719-17.129-12.667-20.152
									c-13.386-3.023-20.871,5.614-26.773-1.727c0,0,0.72,8.636,8.348,10.796C103.07,149.76,102.989,150.657,102.932,151.767z"/>
							</g>
							<path style="fill:#593A34;" d="M130.158,128.928c0,0,1.686,3.746,2.716,3.746c1.03,0,1.686-2.622,0.656-8.148
								c-1.03-5.526-19.294-3.465-27.067-1.686s7.774,4.87,13.861,6.462c6.088,1.592,7.305,1.03,6.369-0.843
								C126.692,128.46,130.907,133.143,130.158,128.928z"/>
							<path style="opacity:0.5;fill:#593A34;" d="M130.158,128.928c0,0,1.686,3.746,2.716,3.746c1.03,0,1.686-2.622,0.656-8.148
								c-1.03-5.526-19.294-3.465-27.067-1.686s7.774,4.87,13.861,6.462c6.088,1.592,7.305,1.03,6.369-0.843
								C126.692,128.46,130.907,133.143,130.158,128.928z"/>
						</g>
						<g>
							<g>
								<path style="fill:#FFFFFF;" d="M167.209,160.873c0-0.002-0.719-17.129,12.667-20.152
									c13.386-3.023,20.871,5.614,26.773-1.727c0,0-0.72,8.636-8.348,10.796c0.26-0.074,0.374,5.662,0.338,6.012
									c-0.413,3.994-2.326,7.63-5.875,9.676c-4.417,2.545-10.034,2.618-14.934,1.769c-2.041-0.354-4.072-0.946-5.907-1.92
									C170.63,164.641,167.281,162.583,167.209,160.873z"/>
								<path style="fill:#844E3D;" d="M201.716,156.934c0,0-9.46,16.671-30.907,7.774c0,0,8.617,7.399,22.384,2.435
									C200.856,164.379,201.716,156.934,201.716,156.934z"/>
								<g>
									
										<ellipse transform="matrix(0.3045 -0.9525 0.9525 0.3045 -19.6175 280.3355)" style="fill:#8A4A2E;" cx="182.163" cy="153.602" rx="11.827" ry="11.827"/>
									<path style="fill:#231F20;" d="M188.816,154.92c-0.728,3.674-4.297,6.062-7.971,5.334
										c-3.674-0.728-6.062-4.297-5.334-7.971c0.728-3.674,4.297-6.062,7.97-5.334
										C187.156,147.678,189.544,151.246,188.816,154.92z"/>
									<path style="fill:#FFFFFF;" d="M180.817,154.041c-0.458,2.311-2.703,3.814-5.015,3.356
										c-2.311-0.458-3.814-2.703-3.355-5.015c0.458-2.311,2.703-3.814,5.014-3.356
										C179.772,149.484,181.275,151.73,180.817,154.041z"/>
								</g>
								<path style="fill:#231F20;" d="M179.876,140.722c13.386-3.023,20.871,5.614,26.773-1.727c0,0-0.72,8.636-8.348,10.796
									c0,0-4.829-9.554-18.865-5.735c-6.321,1.72-9.794,6.39-11.704,11.005C168.739,149.794,171.632,142.583,179.876,140.722z"/>
								<path style="fill:#D1D3D4;" d="M198.542,151.767c-0.976-0.701-1.996-1.33-3.149-1.724c-1.752-0.598-3.609-0.882-5.456-0.946
									c-3.233-0.113-6.485,0.431-9.478,1.665c-2.829,1.166-5.376,2.885-7.702,4.859c-1.174,0.996-2.302,2.053-3.395,3.137
									c-0.77,0.763-1.472,1.593-2.086,2.485c-0.036-0.124-0.062-0.247-0.067-0.368c0-0.002-0.719-17.129,12.667-20.152
									c13.386-3.023,20.871,5.614,26.773-1.727c0,0-0.72,8.636-8.348,10.796C198.404,149.76,198.485,150.657,198.542,151.767z"/>
							</g>
							<path style="fill:#593A34;" d="M171.316,128.928c0,0-1.686,3.746-2.716,3.746s-1.686-2.622-0.656-8.148
								c1.03-5.526,19.294-3.465,27.067-1.686c7.774,1.78-7.774,4.87-13.861,6.462c-6.088,1.592-7.305,1.03-6.369-0.843
								C174.782,128.46,170.567,133.143,171.316,128.928z"/>
							<path style="opacity:0.5;fill:#593A34;" d="M171.316,128.928c0,0-1.686,3.746-2.716,3.746s-1.686-2.622-0.656-8.148
								c1.03-5.526,19.294-3.465,27.067-1.686c7.774,1.78-7.774,4.87-13.861,6.462c-6.088,1.592-7.305,1.03-6.369-0.843
								C174.782,128.46,170.567,133.143,171.316,128.928z"/>
						</g>
					</g>
					<g>
						<path style="fill:#FED09E;" d="M150.742,172.383L150.742,172.383c-0.002,0-0.003,0-0.005,0c-0.002,0-0.003,0-0.005,0v0
							c-4.295,0.006-12.245,3.962-9.528,9.157c2.523,4.825,8.618,6.075,9.48,6.23l0,0.018c0,0,0.021-0.003,0.053-0.009
							c0.032,0.005,0.053,0.009,0.053,0.009l0-0.018c0.863-0.155,6.957-1.404,9.481-6.23
							C162.987,176.345,155.037,172.389,150.742,172.383z"/>
						<path style="opacity:0.7;fill:#FED09E;" d="M158.782,175.547c0.181,1.083-0.154,2.157-0.782,3.096
							c-1.12,1.675-3.212,2.48-5.136,2.721c-2.02,0.253-4.128-0.059-5.954-0.969c-1.824-0.91-3.484-2.662-3.33-4.832
							c0.019-0.262,0.061-0.535,0.123-0.808c-2.398,1.653-3.931,4.046-2.499,6.784c2.523,4.825,8.618,6.075,9.48,6.23v0.018
							c0,0,0.021-0.003,0.053-0.009c0.032,0.005,0.053,0.009,0.053,0.009v-0.018c0.863-0.155,6.957-1.404,9.48-6.23
							C161.488,179.211,160.56,177.133,158.782,175.547z"/>
						<g>
							<path style="fill:#754C29;" d="M147.355,183.917c0,0-2.732-3.238-3.845-1.669
								C142.397,183.816,147.355,183.917,147.355,183.917z"/>
							<path style="fill:#754C29;" d="M154.12,183.917c0,0,2.732-3.238,3.844-1.669C159.077,183.816,154.12,183.917,154.12,183.917z
								"/>
						</g>
					</g>
					<g>
						<path style="fill:#DF7469;" d="M150.689,208.016c12.851,0,17.162-8.323,17.162-8.323c-10.364-7.077-17.162-1.537-17.162-1.537
							h0.106c0,0-6.799-5.54-17.162,1.537c0,0,4.311,8.323,17.162,8.323"/>
						<path style="fill:#DF7469;" d="M133.682,199.608c11.152,2.029,22.966,1.975,34.127-0.002c0.15-0.033,0.247,0.133,0.086,0.173
							c-1.363,0.351-2.724,0.731-4.127,1.003c-7.024,1.423-14.588,1.617-21.783,0.711c-2.883-0.361-5.719-0.904-8.4-1.716
							c-0.067-0.02-0.098-0.074-0.068-0.12C133.545,199.613,133.617,199.593,133.682,199.608L133.682,199.608z"/>
						<g>
							<path style="fill:#DF7469;" d="M167.771,199.586c0,0.355,1.032,0.498,1.604,0.498c0.572,0,1.036-0.288,1.036-0.642
								s-0.464-0.642-1.036-0.642C168.803,198.8,167.771,199.232,167.771,199.586z"/>
							<path style="fill:#DF7469;" d="M133.703,199.586c0,0.355-1.032,0.498-1.604,0.498c-0.572,0-1.036-0.288-1.036-0.642
								s0.464-0.642,1.036-0.642C132.671,198.8,133.703,199.232,133.703,199.586z"/>
						</g>
					</g>
				</g>
				<g>
					<g>
						<path style="fill:#FED09E;" d="M92.337,152.235c-0.183-0.527-8.28-21.251-20.073-18.025
							c-4.544,1.243-5.632,5.821-5.437,10.062c0.285,6.202,2.494,12.953,5.527,18.358c2.795,4.981,6.909,9.328,12.377,11.297
							c3.035,1.093,9.713,3.051,11.578-0.956c0.671-1.442,0.347-3.202-0.092-4.658C92.551,156.153,92.337,152.235,92.337,152.235z"
							/>
						<path style="fill:#FED09E;" d="M81.955,165.675c0,0-6.267-0.161-10.136-8.473c-3.869-8.311-2.863-18.581,2.117-18.465
							c4.98,0.116,13.656,13.769,13.656,13.769s-5.707,2.514-1.385,7.819c0,0-8.78-1.379-8.686-6.598
							c0.095-5.219,5.364-5.449,5.364-5.449s-7.641-9.257-10.688-6.579C69.15,144.375,73.313,164.043,81.955,165.675z"/>
					</g>
					<g>
						<path style="fill:#FED09E;" d="M209.137,152.235c0.183-0.527,8.28-21.251,20.073-18.025c4.544,1.243,5.632,5.821,5.436,10.062
							c-0.285,6.202-2.494,12.953-5.527,18.358c-2.795,4.981-6.908,9.328-12.377,11.297c-3.035,1.093-9.713,3.051-11.578-0.956
							c-0.671-1.442-0.347-3.202,0.092-4.658C208.923,156.153,209.137,152.235,209.137,152.235z"/>
						<path style="fill:#FED09E;" d="M219.519,165.675c0,0,6.267-0.161,10.136-8.473c3.869-8.311,2.863-18.581-2.117-18.465
							c-4.98,0.116-13.655,13.769-13.655,13.769s5.707,2.514,1.385,7.819c0,0,8.78-1.379,8.686-6.598
							c-0.095-5.219-5.365-5.449-5.365-5.449s7.641-9.257,10.688-6.579C232.325,144.375,228.162,164.043,219.519,165.675z"/>
					</g>
				</g>
			</g>
			<g>
				<path style="fill:#593A34;" d="M193.311,67.548c-8.483,9.191-19.242,17.123-29.576,23.667
					c-8.848,5.603-18.232,10.375-28.018,14.113c-2.945,1.125-34.965,10.401-35.215,8.504c0,0.002,5.293,40.107-13.035,78.92
					c-18.329,38.814,15.906,54.983,13.477,86.253c-3.09,39.786-32.884,60.916-0.539,76.011c0,0-29.645,8.959-32.345-15.094
					c-2.7-24.053,3.658-38.358-19.654-45.246c-23.312-6.888-50.863-40.796-38.147-74.705c12.716-33.909,33.909-28.61,32.319-63.049
					c-1.59-34.438-7.947-77.354,43.975-118.68c22.726-18.088,53.031-30.333,82.457-27.945c11.709,0.95,24.715,5.132,32.059,14.873
					c9.15,12.14,4.747,27.22-4.106,38.161C195.802,64.765,194.582,66.17,193.311,67.548z"/>
				<path style="opacity:0.3;fill:#593A34;" d="M255.659,95.216c-1.505-16.874-6.115-38.358-20.813-48.897
					c-9.859-7.069-20.206-7.231-28.733-5.172c0.188-5.495-1.281-10.984-5.044-15.977c-7.343-9.742-20.35-13.923-32.059-14.873
					c-29.427-2.388-59.731,9.857-82.457,27.945c-35.447,28.213-43.731,57.167-44.914,83.659
					c2.381-10.56,11.925-32.918,12.938-34.837c11.3-21.403,31.436-36.216,53.462-45.285c23.239-9.569,51.429-15.863,76.361-10.499
					c9.358,2.013,18.792,7.521,16.829,18.478c0,0,53.773-17.125,53.172,73.072C255.915,113.709,256.483,104.454,255.659,95.216z"/>
				<path style="opacity:0.3;fill:#593A34;" d="M100.943,279.005c2.428-31.27-31.806-47.439-13.477-86.253
					c18.328-38.813,13.036-78.919,13.035-78.92c-0.868,12.491-2.765,25.043-5.546,37.244c-1.988,8.722-4.388,17.772-8.675,25.687
					c-5.114,9.444-14.534,15.883-20.473,24.829c-8.025,12.089-12.819,27.13-10.677,41.698c2.271,15.44,15.419,27.025,19.907,41.888
					c5.283,17.5-1.523,35.533,2.489,52.92c2.366,10.254,10.908,15.397,21.772,17.214c0.705-0.174,1.105-0.295,1.105-0.295
					C68.059,339.922,97.853,318.791,100.943,279.005z"/>
			</g>
		</g>
	</g>
</g>
</svg>
